<?xml version="1.0" encoding="iso-8859-1"?>
<!-- Generator: Adobe Illustrator 19.0.0, SVG Export Plug-In . SVG Version: 6.00 Build 0)  -->
<svg version="1.1" id="Layer_1" xmlns="http://www.w3.org/2000/svg" xmlns:xlink="http://www.w3.org/1999/xlink" x="0px" y="0px"
	 viewBox="0 0 491.52 491.52" style="enable-background:new 0 0 491.52 491.52;" xml:space="preserve">
<g>
	<g>
		<path d="M0,0v491.52h491.52V0H0z M471.04,471.04H20.48V102.4h450.56V471.04z M471.04,81.92H20.48V20.48h450.56V81.92z"/>
	</g>
</g>
<g>
	<g>
		<rect x="430.08" y="40.96" width="20.48" height="20.48"/>
	</g>
</g>
<g>
	<g>
		<rect x="389.12" y="40.96" width="20.48" height="20.48"/>
	</g>
</g>
<g>
	<g>
		<rect x="348.16" y="40.96" width="20.48" height="20.48"/>
	</g>
</g>
<g>
	<g>
		<path d="M40.96,122.88v92.16h409.6v-92.16H40.96z M430.08,194.56H61.44v-51.2h368.64V194.56z"/>
	</g>
</g>
<g>
	<g>
		<path d="M40.96,235.52v215.04h122.88V235.52H40.96z M143.36,430.08H61.44V256h81.92V430.08z"/>
	</g>
</g>
<g>
	<g>
		<path d="M184.32,235.52v215.04H307.2V235.52H184.32z M286.72,430.08H204.8V256h81.92V430.08z"/>
	</g>
</g>
<g>
	<g>
		<path d="M327.68,235.52v215.04h122.88V235.52H327.68z M348.16,430.08V256h81.92v174.08H348.16z"/>
	</g>
</g>
<g>
</g>
<g>
</g>
<g>
</g>
<g>
</g>
<g>
</g>
<g>
</g>
<g>
</g>
<g>
</g>
<g>
</g>
<g>
</g>
<g>
</g>
<g>
</g>
<g>
</g>
<g>
</g>
<g>
</g>
</svg>
