<svg width="492.98" height="492.98" xmlns="http://www.w3.org/2000/svg">

 <g>
  <title>background</title>
  <rect fill="none" id="canvas_background" height="491.524" width="491.524" y="-1" x="-1"/>
 </g>
 <g>
  <title>Layer 1</title>
  <g stroke="null" id="svg_1">
   <path stroke="null" id="svg_2" d="m390.47522,65.191733l-61.145191,0c-6.32041,0 -11.460853,5.13616 -11.460853,11.448392l0,4.432854l-4.414551,0c-6.32041,0.000389 -11.454623,5.135771 -11.454623,11.454233l0,87.998559c0,6.31301 5.134213,11.454623 11.454623,11.454623l61.145581,0c6.318462,0 11.454623,-5.141612 11.454623,-11.454623l0,-4.41494l4.420782,0c6.312232,0 11.454623,-5.140833 11.454623,-11.466695l0,-88.003622c0,-6.312232 -5.142781,-11.448781 -11.455012,-11.448781zm-15.875015,15.881635l-48.051079,0l0,-4.432854c0,-1.529672 1.239937,-2.776229 2.780902,-2.776229l61.145581,0c1.526556,0 2.773114,1.246558 2.773114,2.776229l0,88.003622c0,1.534734 -1.246558,2.780902 -2.773114,2.780902l-4.420782,0l0,-74.897826c0,-6.318462 -5.13655,-11.453844 -11.454623,-11.453844zm-63.921031,11.453844c0,-1.528893 1.240716,-2.773114 2.77545,-2.773114l61.145581,0c1.534734,0 2.773114,1.244221 2.773114,2.773114l0,87.998559c0,1.534734 -1.23838,2.781681 -2.773114,2.781681l-61.145581,0c-1.534734,0 -2.77545,-1.246558 -2.77545,-2.781681l0,-87.998559z"/>
   <path stroke="null" id="svg_3" d="m327.944835,114.438355l24.59313,0c2.390696,0 4.338613,-1.953369 4.338613,-4.337834c0,-2.400432 -1.947917,-4.347569 -4.338613,-4.347569l-24.59313,0c-2.386023,0 -4.34017,1.947138 -4.34017,4.347569c0.000389,2.384854 1.954148,4.337834 4.34017,4.337834z"/>
   <path stroke="null" id="svg_4" d="m327.944835,133.358304l32.164381,0c2.386802,0 4.338613,-1.947917 4.338613,-4.346791c0,-2.384465 -1.951811,-4.332382 -4.338613,-4.332382l-32.164381,0c-2.386023,0 -4.34017,1.947917 -4.34017,4.332382c0.000389,2.398874 1.954148,4.346791 4.34017,4.346791z"/>
   <path stroke="null" id="svg_5" d="m327.944835,152.263065l32.164381,0c2.386802,0 4.338613,-1.940907 4.338613,-4.331603c0,-2.398874 -1.951811,-4.347569 -4.338613,-4.347569l-32.164381,0c-2.386023,0 -4.34017,1.948696 -4.34017,4.347569c0.000389,2.390696 1.954148,4.331603 4.34017,4.331603z"/>
   <path stroke="null" id="svg_6" d="m327.944835,171.182236l32.164381,0c2.386802,0 4.338613,-1.947917 4.338613,-4.334718c0,-2.397316 -1.951811,-4.343675 -4.338613,-4.343675l-32.164381,0c-2.386023,0 -4.34017,1.946359 -4.34017,4.343675c0.000389,2.386802 1.954148,4.334718 4.34017,4.334718z"/>
   <path stroke="null" id="svg_7" d="m489.721616,0l-69.575909,0c-2.35409,0 -4.263842,1.915205 -4.263842,4.264621l0,30.371456l8.522622,0l0,-26.119686l61.046666,0l0,71.780069l-11.672313,0c-2.354869,0 -4.259559,1.915984 -4.259559,4.264621l0,11.678933l-45.115184,0l0,-25.900828l-8.522622,0l0,30.159218c0,2.342796 1.909753,4.258001 4.263842,4.258001l53.633134,0c1.125835,0 2.20416,-0.438106 3.011833,-1.245779l15.936934,-15.930703c0.813904,-0.808452 1.252789,-1.87782 1.252789,-3.018843l0,-80.296461c0,-2.349417 -1.909753,-4.264621 -4.258391,-4.264621z"/>
   <path stroke="null" id="svg_8" d="m431.479997,69.075495c0,1.558489 0.928785,2.943683 2.369277,3.53055c0.46264,0.187704 0.957602,0.288176 1.458796,0.288176c1.033541,0 1.998153,-0.388649 2.710805,-1.114152l16.588836,-16.588836c0.719662,-0.721999 1.121162,-1.685443 1.121162,-2.698733c0,-1.002387 -0.413183,-2.004773 -1.126614,-2.718204l-16.583384,-16.570533c-1.063916,-1.071705 -2.754811,-1.417127 -4.175832,-0.839606c-1.434651,0.594656 -2.363047,1.986081 -2.363047,3.539118l0,4.08198l-26.087753,0c-2.109919,0 -3.827294,1.715039 -3.827294,3.834304l0,17.339263c0,2.116928 1.717376,3.831188 3.827294,3.831188l26.087753,0l0,4.085485z"/>
  </g>
  <g id="svg_9"/>
  <g id="svg_10"/>
  <g id="svg_11"/>
  <g id="svg_12"/>
  <g id="svg_13"/>
  <g id="svg_14"/>
  <g id="svg_15"/>
  <g id="svg_16"/>
  <g id="svg_17"/>
  <g id="svg_18"/>
  <g id="svg_19"/>
  <g id="svg_20"/>
  <g id="svg_21"/>
  <g id="svg_22"/>
  <g id="svg_23"/>
 </g>
</svg>