<?xml version="1.0" encoding="iso-8859-1"?>
<!-- Generator: Adobe Illustrator 18.0.0, SVG Export Plug-In . SVG Version: 6.00 Build 0)  -->
<!DOCTYPE svg PUBLIC "-//W3C//DTD SVG 1.1//EN" "http://www.w3.org/Graphics/SVG/1.1/DTD/svg11.dtd">
<svg version="1.1" id="Capa_1" xmlns="http://www.w3.org/2000/svg" xmlns:xlink="http://www.w3.org/1999/xlink" x="0px" y="0px"
	 viewBox="0 0 483.249 483.249" style="enable-background:new 0 0 483.249 483.249;" xml:space="preserve">
<g>
	<path d="M212.865,213.014c-4.369,6.313-6.904,13.962-6.904,22.203v50.626c0,20.181,15.045,40.843,34.251,47.038l18.776,6.058
		c9.755,3.147,18.313,14.898,18.313,25.148v66.735c0,21.568,17.547,39.115,39.115,39.115h56.38
		c21.567,0,39.114-17.547,39.114-39.115v-66.735c0-10.25,8.557-22.002,18.313-25.149l18.775-6.057
		c19.206-6.196,34.251-26.858,34.251-47.038v-50.626c0-21.184-16.931-38.477-37.97-39.086V24.812c0-6.351-5.148-11.5-11.5-11.5
		c-6.352,0-11.5,5.149-11.5,11.5v171.29h-58.695V24.812c0-6.351-5.148-11.5-11.5-11.5c-6.352,0-11.5,5.149-11.5,11.5v171.29h-16.121
		V24.812c0-6.351-5.148-11.5-11.5-11.5c-6.352,0-11.5,5.149-11.5,11.5v171.29h-56.387c-3.173,0-6.255,0.389-9.211,1.105V24.812
		c0-6.351-5.148-11.5-11.5-11.5c-6.352,0-11.5,5.149-11.5,11.5V213.014z M460.249,285.843c0,10.25-8.557,22.002-18.313,25.149
		l-18.775,6.057c-19.206,6.196-34.251,26.857-34.251,47.038v66.735c0,8.886-7.228,16.115-16.114,16.115h-56.38
		c-8.886,0-16.115-7.23-16.115-16.115v-66.735c0-20.181-15.045-40.842-34.251-47.038l-18.776-6.058
		c-9.755-3.146-18.313-14.898-18.313-25.148v-50.626c0-8.886,7.23-16.115,16.115-16.115h199.058c8.886,0,16.115,7.229,16.115,16.115
		V285.843z"/>
	<path d="M164.533,13.312c-6.352,0-11.5,5.149-11.5,11.5v187.552c0,6.351,5.148,11.5,11.5,11.5c6.352,0,11.5-5.149,11.5-11.5V24.812
		C176.033,18.461,170.885,13.312,164.533,13.312z"/>
	<path d="M100.099,13.312c-6.352,0-11.5,5.149-11.5,11.5v187.552c0,6.351,5.148,11.5,11.5,11.5c6.352,0,11.5-5.149,11.5-11.5V24.812
		C111.599,18.461,106.45,13.312,100.099,13.312z"/>
	<path d="M67.881,13.312c-6.352,0-11.5,5.149-11.5,11.5v187.552c0,6.351,5.148,11.5,11.5,11.5s11.5-5.149,11.5-11.5V24.812
		C79.381,18.461,74.232,13.312,67.881,13.312z"/>
	<path d="M11.5,13.312c-6.352,0-11.5,5.149-11.5,11.5v333.681c0,6.351,5.148,11.5,11.5,11.5c6.352,0,11.5-5.149,11.5-11.5V24.812
		C23,18.461,17.852,13.312,11.5,13.312z"/>
</g>
<g>
</g>
<g>
</g>
<g>
</g>
<g>
</g>
<g>
</g>
<g>
</g>
<g>
</g>
<g>
</g>
<g>
</g>
<g>
</g>
<g>
</g>
<g>
</g>
<g>
</g>
<g>
</g>
<g>
</g>
</svg>
