<svg width="252.936" height="252.937" xmlns="http://www.w3.org/2000/svg">

 <g>
  <title>background</title>
  <rect fill="none" id="canvas_background" height="491.524" width="491.524" y="-1" x="-1"/>
 </g>
 <g>
  <title>Layer 1</title>
  <g stroke="null" id="svg_1">
   <g stroke="null" id="svg_2">
    <path stroke="null" id="svg_3" d="m252.450626,48.893819c-1.202824,-1.779317 -3.332872,-2.843411 -5.696864,-2.843411l-11.52911,0c0.121249,-1.737661 0.166253,-3.176661 0.180386,-4.209513c0.010042,-0.981525 -0.807462,-1.777457 -1.791219,-1.777457l-71.576591,0c-0.982641,0 -1.801633,0.794072 -1.787871,1.777457c0.101537,7.681114 2.074258,37.973017 26.626524,45.350264l-23.002059,0c-1.453877,0 -3.066569,1.098684 -3.592479,2.456231l-0.717826,1.847008c-0.528514,1.35606 0.217951,2.456231 1.67592,2.456231l73.168826,0c1.454621,0 2.204806,-1.100543 1.677036,-2.456231l-0.721918,-1.847008c-0.52777,-1.357175 -2.134883,-2.456231 -3.593223,-2.456231l-21.878084,0c8.338688,-2.612442 13.963025,-8.087263 17.747049,-14.431658c15.84797,-0.447805 22.669925,-11.406373 25.32923,-18.01112c0.815644,-2.025163 0.627819,-4.160418 -0.517728,-5.854562zm-4.429696,3.865849c-2.416062,6.00445 -7.408489,13.018693 -17.566291,14.436865c2.29816,-5.455853 3.539293,-11.093951 4.202446,-15.811893l12.096677,0c0.697742,0 1.118024,0.253657 1.277954,0.494668c0.142078,0.210141 0.138358,0.505454 -0.010786,0.88036z"/>
    <path stroke="null" id="svg_4" d="m197.146007,37.747054c0.376022,0.432184 0.90342,0.652739 1.427842,0.652739c0.44111,0 0.881848,-0.152864 1.23481,-0.460822c0.788121,-0.682121 0.875153,-1.874903 0.190057,-2.662652c-0.04426,-0.056533 -5.047845,-5.968745 -1.832131,-10.013864c4.287618,-5.396716 1.67592,-9.80298 -0.305355,-11.377362c-0.812297,-0.649391 -2.003219,-0.515496 -2.652238,0.300148c-0.641209,0.810809 -0.513636,1.989458 0.288246,2.639221c0.458219,0.391643 2.575249,2.48487 -0.288246,6.091854c-5.161655,6.494655 1.649885,14.493399 1.937015,14.83074z"/>
    <path stroke="null" id="svg_5" d="m207.2443,4.03376c0.801883,-0.652739 0.929455,-1.829527 0.284527,-2.639221c-0.649019,-0.815644 -1.836594,-0.949539 -2.652238,-0.301264c-1.977928,1.575127 -4.589626,5.981763 -0.302008,11.378106c3.215714,4.045491 -1.787871,9.959562 -1.836594,10.013864c-0.680633,0.787377 -0.596949,1.980531 0.1908,2.663024c0.356682,0.309074 0.797792,0.460822 1.235182,0.460822c0.52777,0 1.055168,-0.220555 1.426726,-0.652739c0.291594,-0.337341 7.100159,-8.336085 1.941479,-14.835203c-2.867214,-3.602522 -0.747953,-5.698351 -0.287874,-6.087391z"/>
   </g>
  </g>
  <g id="svg_6"/>
  <g id="svg_7"/>
  <g id="svg_8"/>
  <g id="svg_9"/>
  <g id="svg_10"/>
  <g id="svg_11"/>
  <g id="svg_12"/>
  <g id="svg_13"/>
  <g id="svg_14"/>
  <g id="svg_15"/>
  <g id="svg_16"/>
  <g id="svg_17"/>
  <g id="svg_18"/>
  <g id="svg_19"/>
  <g id="svg_20"/>
 </g>
</svg>