<?xml version="1.0" encoding="iso-8859-1"?>
<!-- Generator: Adobe Illustrator 19.0.0, SVG Export Plug-In . SVG Version: 6.00 Build 0)  -->
<svg version="1.1" id="Layer_1" xmlns="http://www.w3.org/2000/svg" xmlns:xlink="http://www.w3.org/1999/xlink" x="0px" y="0px"
	 viewBox="0 0 512 512" style="enable-background:new 0 0 512 512;" xml:space="preserve">
<g>
	<path style="fill:#F33052;" d="M51.712,223.96v13.248L14.128,255.32l37.584,18.144v13.168L0,260.936v-11.264L51.712,223.96z"/>
	<path style="fill:#F33052;" d="M126.752,239.416h-14.768c-0.048-0.736-0.112-1.28-0.112-1.632c-0.352-4.464-1.328-7.296-2.96-8.432
		c-1.632-1.136-5.488-1.712-11.552-1.712c-7.152,0-11.808,0.656-14,1.984c-2.208,1.328-3.296,4.112-3.296,8.32
		c0,5.024,0.896,8.048,2.672,9.056c1.792,1.008,7.696,1.76,17.728,2.304c11.856,0.672,19.536,2.368,23.008,5.088
		c3.488,2.72,5.216,8.384,5.216,16.976c0,10.576-2.064,17.408-6.144,20.48c-4.08,3.104-13.056,4.656-26.976,4.656
		c-12.512,0-20.832-1.52-24.944-4.544c-4.08-3.04-6.144-9.2-6.144-18.448l-0.048-2.912H79.12l0.08,1.68
		c0,5.552,0.944,8.976,2.912,10.192c1.936,1.248,7.232,1.872,15.904,1.872c6.768,0,11.072-0.736,12.944-2.144
		c1.856-1.44,2.8-4.784,2.8-9.984c0-3.856-0.704-6.384-2.144-7.664c-1.408-1.248-4.464-2.032-9.168-2.304l-8.368-0.496
		c-12.592-0.736-20.64-2.48-24.128-5.248c-3.504-2.752-5.248-8.672-5.248-17.792c0-9.28,2.096-15.472,6.336-18.544
		c4.208-3.104,12.624-4.656,25.264-4.656c11.968,0,20.016,1.408,24.176,4.272c4.16,2.832,6.256,8.384,6.256,16.624v3.008H126.752z"
		/>
	<path style="fill:#F33052;" d="M188.304,267.4h15.184v2.752c0,11.072-2.032,18.224-6.064,21.488
		c-4.048,3.232-13.008,4.864-26.816,4.864c-15.728,0-25.376-2.576-28.992-7.696c-3.616-5.136-5.408-18.848-5.408-41.184
		c0-13.136,2.448-21.76,7.344-25.92c4.896-4.128,15.152-6.208,30.736-6.208c11.344,0,18.928,1.712,22.736,5.12
		c3.808,3.392,5.712,10.144,5.712,20.256l0.048,1.792h-15.152v-2.016c0-5.2-0.976-8.544-2.96-10.016
		c-1.952-1.44-6.416-2.176-13.44-2.176c-9.36,0-14.992,1.136-16.864,3.456c-1.904,2.288-2.832,9.088-2.832,20.4
		c0,15.232,0.848,24.256,2.528,27.04c1.68,2.8,7.152,4.208,16.4,4.208c7.504,0,12.368-0.784,14.608-2.336
		c2.256-1.552,3.376-4.976,3.376-10.256L188.304,267.4z"/>
	<path style="fill:#F33052;" d="M212.976,295.8v-79.584h39.248c9.76,0,16.48,1.68,20.176,5.056c3.664,3.392,5.52,9.52,5.52,18.384
		c0,8.016-0.928,13.552-2.768,16.48c-1.824,2.96-5.6,5.008-11.312,6.112v0.544c8.816,0.544,13.216,5.68,13.216,15.456v17.536
		h-15.088v-14.528c0-8.192-4.048-12.288-12.128-12.288h-21.76v26.816h-15.104V295.8z M228.064,256.28h21.712
		c5.168,0,8.592-0.928,10.288-2.768c1.68-1.856,2.56-5.552,2.56-11.12c0-5.664-0.736-9.328-2.208-10.992
		c-1.44-1.632-4.656-2.48-9.6-2.48H228.08v27.36H228.064z"/>
	<path style="fill:#F33052;" d="M305.008,216.216V295.8H289.92v-79.584H305.008z"/>
	<path style="fill:#F33052;" d="M319.136,295.8v-79.584H351.2h3.968c10.768,0,18.032,1.872,21.792,5.632
		c3.76,3.76,5.632,10.992,5.632,21.712c0,10.656-1.792,17.728-5.392,21.248c-3.568,3.488-10.8,5.216-21.68,5.216l-3.504,0.08
		h-17.792V295.8H319.136z M334.224,257.368h17.216c6.832,0,11.184-0.784,13.024-2.368c1.856-1.552,2.768-5.28,2.768-11.152
		c0-6.72-0.768-10.912-2.304-12.512c-1.52-1.6-5.52-2.416-11.968-2.416h-18.736L334.224,257.368L334.224,257.368z"/>
	<path style="fill:#F33052;" d="M423.904,229.736V295.8H408.8v-66.064h-22.96v-13.52h61.856v13.52H423.904z"/>
	<path style="fill:#F33052;" d="M460.288,286.712v-13.248l37.616-18.144l-37.616-18.192v-13.104L512,249.72v11.264L460.288,286.712z
		"/>
</g>
<g>
</g>
<g>
</g>
<g>
</g>
<g>
</g>
<g>
</g>
<g>
</g>
<g>
</g>
<g>
</g>
<g>
</g>
<g>
</g>
<g>
</g>
<g>
</g>
<g>
</g>
<g>
</g>
<g>
</g>
</svg>
