<svg width="489.524" height="489.524" xmlns="http://www.w3.org/2000/svg">

 <g>
  <title>background</title>
  <rect fill="none" id="canvas_background" height="402" width="582" y="-1" x="-1"/>
 </g>
 <g>
  <title>Layer 1</title>
  <g stroke="null" id="svg_1">
   <g stroke="null" id="svg_2">
    <path stroke="null" id="svg_3" fill="#D80027" d="m342.239647,14.447835c15.63686,3.439193 25.464607,22.65821 25.504395,22.739132c-4.695037,3.155965 -8.952401,7.363918 -12.533361,12.340632c8.833035,8.820517 20.292108,14.323226 32.825469,14.323226s23.992434,-5.502708 32.785681,-14.323226c-3.58096,-5.017175 -7.758747,-9.184667 -12.453784,-12.340632l0,0c1.114077,-2.22536 10.822458,-19.664089 25.62376,-22.900977c2.586249,-0.606916 4.137999,-3.803342 2.068999,-6.271469c-0.915134,-1.092449 -2.347518,-1.537521 -3.700326,-1.254294c-18.024167,3.803342 -28.727259,23.103282 -30.676893,26.825702c-4.297152,-1.780288 -8.872824,-2.791815 -13.647438,-2.791815c-4.734825,0 -9.310497,0.971066 -13.567861,2.751354c0,-0.040461 -11.140765,-22.617749 -30.676893,-26.663858c-2.029211,-0.404611 -4.018633,0.930605 -4.496095,2.994121c-0.477461,2.063516 0.915134,4.08657 2.944345,4.572103z"/>
    <path stroke="null" id="svg_4" fill="#D80027" d="m483.966098,73.763792c-1.551749,-1.577982 -4.018633,-1.416138 -5.411229,0.161844l-11.459073,12.583399l-33.979334,9.386973c0.159154,-1.982593 1.313019,-11.652794 -1.830269,-22.65821l25.583972,-15.051525c0.755981,-0.485533 1.392596,-1.254294 1.710903,-2.184899l7.758747,-23.912504c0.636615,-2.063516 -0.477461,-4.248414 -2.466884,-4.895792c-2.029211,-0.647377 -4.177787,0.485533 -4.814402,2.508588l-7.122132,22.65821l-22.758992,13.311698c-1.153865,-3.35827 -2.546461,-6.554696 -4.137999,-9.548817c-10.384785,9.912967 -23.355819,15.253831 -36.844103,15.253831c-13.448495,0 -26.459318,-5.502708 -36.844103,-15.253831c-1.472173,2.791815 -2.785191,5.785936 -3.899268,8.90144l-21.963223,-12.826165l-7.122132,-22.65821c-0.636615,-2.063516 -2.785191,-3.155965 -4.814402,-2.508588c-2.029211,0.647377 -3.103499,2.832276 -2.466884,4.895792l7.639382,24.074348c0.318308,0.930605 0.915134,1.739827 1.710903,2.184899c0,0 24.549472,14.525531 24.788203,14.687375c-3.382018,11.410027 -1.830269,21.039766 -1.671115,23.02236l-35.053623,-9.710661l-11.459073,-12.583399c-1.551749,-1.577982 -3.859479,-1.577982 -5.411229,-0.161844c-1.551749,1.577982 -1.551749,3.924726 -0.159154,5.502708l12.215053,13.514004c0.636615,0.485533 1.233442,0.930605 1.870057,1.092449c14.960456,4.167492 36.326853,10.155733 39.112044,10.681728c1.193653,6.190547 3.103499,11.976482 5.64996,17.195963l-23.59455,12.219249c-0.915134,0.323689 -1.551749,1.092449 -1.870057,2.063516l-7.321074,20.958844c-0.716192,1.982593 0.278519,4.167492 2.188365,4.936253c1.989422,0.809222 4.257364,-0.242767 4.973556,-2.306282l6.843613,-19.29994l22.281531,-11.652794c0.119365,-0.040461 0.198942,-0.121383 0.278519,-0.161844c8.236209,12.62386 20.491051,20.635156 34.218065,20.635156c13.886168,0 26.300164,-8.213601 34.536373,-21.16115c0.198942,0.121383 0.358096,0.283228 0.596827,0.36415l22.440685,11.652794l6.883401,19.664089c0.716192,2.023054 2.944345,3.034582 4.933768,2.265821l0,0c1.870057,-0.768761 2.82498,-2.913198 2.148576,-4.81487l-7.44044,-21.322994c-0.318308,-0.768761 -0.915134,-1.577982 -1.870057,-2.063516l-23.674126,-12.25971c-0.079577,-0.040461 -0.198942,-0.080922 -0.278519,-0.121383c2.387307,-5.057636 4.257364,-10.641267 5.411229,-16.548586l0,0l38.077545,-10.560344c0.755981,-0.161844 1.392596,-0.647377 1.870057,-1.092449l12.215053,-13.514004c1.511961,-1.618444 1.352807,-4.127031 -0.198942,-5.543169z"/>
   </g>
  </g>
  <g id="svg_5"/>
  <g id="svg_6"/>
  <g id="svg_7"/>
  <g id="svg_8"/>
  <g id="svg_9"/>
  <g id="svg_10"/>
  <g id="svg_11"/>
  <g id="svg_12"/>
  <g id="svg_13"/>
  <g id="svg_14"/>
  <g id="svg_15"/>
  <g id="svg_16"/>
  <g id="svg_17"/>
  <g id="svg_18"/>
  <g id="svg_19"/>
 </g>
</svg>