<svg xmlns="http://www.w3.org/2000/svg" xmlns:xlink="http://www.w3.org/1999/xlink" version="1.1" xml:space="preserve" width="502.1189880371094" height="502.1189880371094"><rect id="backgroundrect" width="100%" height="100%" x="0" y="0" fill="none" stroke="none"/>
















<g class="currentLayer"><title>Layer 1</title><g id="svg_1" class="selected">
	<g id="svg_2">
		<path style="fill:#4D93E8;" d="M179.07107963248183,96.78361959693763 L372.24989738973494,227.42203278049413 c17.719035741919427,11.98249875504834 17.719035741919427,38.07733250677895 0,50.0598312618273 L179.07107963248183,408.1209448861418 c-20.066529229563596,13.570194862448183 -47.142823569131785,-0.805865938448956 -47.142823569131785,-25.02991563091365 V121.81353522785125 C131.92825606335003,97.58948553538659 159.00455040291826,83.21342473448942 179.07107963248183,96.78361959693763 z" id="svg_3"/>
		<path d="M162.2099873295905,420.07473424984516 c-5.898110770719176,0 -11.828269234102436,-1.458837676479669 -17.365843462350664,-4.3992134784094015 c-12.26825734796976,-6.513693533975128 -19.592490442240685,-18.69448738738249 -19.592490442240685,-32.584491516207684 V121.81353522785125 c0,-13.89000412882519 7.324233094270927,-26.070797982232556 19.592490442240685,-32.584491516207684 c12.26692202744209,-6.513693533975128 26.462046896839915,-5.756566794786138 37.96650090298233,2.0243459199479896 l193.1788177572531,130.63908084382035 c10.160453895042384,6.8708917751269 16.226147391984167,18.29522654960911 16.226147391984167,30.56014559625969 s-6.065693496941783,23.68925382113279 -16.226147391984167,30.56014559625969 L182.81131243048594,413.6511748514878 C176.49991995645286,417.9195269181855 169.3786555823878,420.07473424984516 162.2099873295905,420.07473424984516 zM162.18661922035622,98.21641852312771 c-3.763600907238399,0 -7.547231622391845,0.9307184077861218 -11.080489738607136,2.8068437491627143 c-7.8283165934664165,4.156185142373428 -12.501270780048205,11.928418273677698 -12.501270780048205,20.79094061582467 v261.27749402737686 c0,8.86252234214697 4.672954186581787,16.63475547345124 12.501270780048205,20.79094061582467 c7.826981272938749,4.156852802637264 16.883125091597893,3.6727991113568246 24.224717352728533,-1.2919226105209003 l193.1788177572531,-130.63908084382035 c6.579124239830966,-4.4492879981970335 10.352740051026887,-11.556531506721553 10.352740051026887,-19.499018005303768 c0,-7.942486498582218 -3.7729481509320872,-15.049730007106739 -10.352740051026887,-19.499018005303768 L175.33151449474144,102.3145172225475 C171.30352012302438,99.59113100636415 166.7600920276266,98.21641852312771 162.18661922035622,98.21641852312771 z" id="svg_4"/>
	</g>
	<g id="svg_5">
		<path d="M325.4943167736275,229.08450683744348 c-1.2899196297293924,0 -2.591857144207815,-0.3725544272199821 -3.740232798004168,-1.1503786345878662 l-10.840132043626506,-7.346265882977483 c-3.051875065990191,-2.068411497361106 -3.850396741536958,-6.219923017887688 -1.7813175839120179,-9.272465744141714 c2.069746817888777,-3.052542726254027 6.219923017887688,-3.849061421009289 9.273133404405549,-1.7813175839120179 l10.840132043626506,7.346265882977483 c3.051875065990191,2.068411497361106 3.850396741536958,6.219923017887688 1.7813175839120179,9.272465744141714 C329.7359624297718,228.0576453516651 327.63416791921895,229.08450683744348 325.4943167736275,229.08450683744348 z" id="svg_6"/>
	</g>
	<g id="svg_7">
		<path d="M294.1142843733784,207.81885977403203 c-1.2899196297293924,0 -2.591857144207815,-0.3725544272199821 -3.740232798004168,-1.1503786345878662 l-130.19375144784235,-88.23063620554316 c-3.051875065990191,-2.0690791576249405 -3.850396741536958,-6.219923017887688 -1.7813175839120179,-9.272465744141714 c2.069746817888777,-3.052542726254027 6.219923017887688,-3.849061421009289 9.273133404405549,-1.7813175839120179 l130.19375144784235,88.23063620554316 c3.051875065990191,2.0690791576249405 3.850396741536958,6.219923017887688 1.7813175839120179,9.272465744141714 C298.3559300295226,206.7919982882537 296.25413551896975,207.81885977403203 294.1142843733784,207.81885977403203 z" id="svg_8"/>
	</g>
</g></g></svg>