<?xml version="1.0" encoding="iso-8859-1"?>
<!-- Generator: Adobe Illustrator 19.0.0, SVG Export Plug-In . SVG Version: 6.00 Build 0)  -->
<svg version="1.1" id="Layer_1" xmlns="http://www.w3.org/2000/svg" xmlns:xlink="http://www.w3.org/1999/xlink" x="0px" y="0px"
	 viewBox="0 0 303.188 303.188" style="enable-background:new 0 0 303.188 303.188;" xml:space="preserve">
<g>
	<polygon style="fill:#E8E8E8;" points="219.821,0 32.842,0 32.842,303.188 270.346,303.188 270.346,50.525 	"/>
	<g>
		<circle style="fill:#004A94;" cx="150.607" cy="122.143" r="57.429"/>
		<path style="fill:#D1D3D3;" d="M177.025,142.234c-5.891,5.891-14.028,9.535-23.017,9.535c-17.979,0-32.552-14.574-32.552-32.552
			c0-12.016,6.51-22.511,16.195-28.151l-36.189,1.349c-5.257,8.672-8.284,18.846-8.284,29.728c0,31.718,25.71,57.429,57.429,57.429
			c16.657,0,31.652-7.098,42.142-18.428L177.025,142.234z"/>
		<path style="fill:#A4A9AD;" d="M208.244,128.836c0-7.711-6.25-13.961-13.96-13.961c-2.828,0-5.454,0.846-7.652,2.291l-0.003-0.002
			c-0.017,0.011-0.033,0.023-0.048,0.033c-0.08,0.054-0.161,0.109-0.239,0.165c-9.158,6.118-16.015,27.497-25.047,35.551
			l0.009-0.007c-5.552,5.055-12.93,8.136-21.03,8.136c-17.258,0-31.245-13.989-31.245-31.245c0-17.257,13.987-31.246,31.245-31.246
			c3.458,0,13.4,2.673,21.71,0.974c1.846-0.344,3.591-0.965,5.183-1.838c0.01-0.005,0.021-0.009,0.029-0.015
			c0.064-0.035,0.118-0.076,0.181-0.113c5.316-3.01,8.912-8.707,8.912-15.252c0-8.155-5.579-14.979-13.122-16.935
			c-4.046-0.891-8.245-1.375-12.559-1.375c-8.386,0-16.353,1.789-23.553,4.985l-6.024,3.102
			c-17.096,10.125-28.568,28.748-28.568,50.059c0,32.113,26.032,58.146,58.146,58.146c29.5,0,53.85-21.973,57.623-50.441
			l-0.036-0.02C208.218,129.499,208.244,129.171,208.244,128.836z"/>
		<circle style="fill:#38A3FF;" cx="144.152" cy="119.602" r="11.419"/>
	</g>
	<g>
		<path style="fill:#A4A9AD;" d="M111.237,235.835c-3.086,0-5.492,1.264-7.221,3.79c-1.729,2.527-2.592,6.011-2.592,10.452
			c0,9.233,3.512,13.849,10.534,13.849c2.122,0,4.179-0.295,6.169-0.886c1.991-0.591,3.993-1.302,6.006-2.133v10.961
			c-4.004,1.772-8.532,2.658-13.586,2.658c-7.242,0-12.794-2.1-16.654-6.301c-3.862-4.201-5.793-10.272-5.793-18.214
			c0-4.966,0.936-9.331,2.806-13.094s4.562-6.656,8.073-8.68c3.512-2.023,7.641-3.036,12.389-3.036
			c5.186,0,10.141,1.127,14.866,3.38l-3.971,10.206c-1.772-0.831-3.544-1.531-5.316-2.1
			C115.175,236.12,113.271,235.835,111.237,235.835z"/>
		<path style="fill:#A4A9AD;" d="M166.665,264.583h-5.283v9.288h-12.799v-9.288H129.45v-9.517l19.953-29.175h11.979v29.011h5.283
			L166.665,264.583L166.665,264.583z M148.583,254.902v-5.579c0-1.05,0.039-2.467,0.115-4.25s0.137-2.718,0.18-2.806h-0.359
			c-0.744,1.685-1.588,3.26-2.527,4.726l-5.316,7.909H148.583z"/>
		<path style="fill:#A4A9AD;" d="M213.596,248.864c0,8.007-2.205,14.177-6.613,18.509s-10.605,6.498-18.591,6.498H172.87v-47.979
			h16.605c7.701,0,13.646,1.969,17.836,5.907C211.5,235.737,213.596,241.426,213.596,248.864z M200.141,249.324
			c0-4.398-0.87-7.657-2.609-9.78c-1.739-2.122-4.381-3.183-7.926-3.183h-3.773v26.877h2.888c3.938,0,6.826-1.143,8.664-3.43
			C199.222,257.523,200.141,254.028,200.141,249.324z"/>
	</g>
	<polygon style="fill:#004A94;" points="227.64,25.263 32.842,25.263 32.842,0 219.821,0 	"/>
	<polygon style="fill:#D1D3D3;" points="219.821,50.525 270.346,50.525 219.821,0 	"/>
</g>
<g>
</g>
<g>
</g>
<g>
</g>
<g>
</g>
<g>
</g>
<g>
</g>
<g>
</g>
<g>
</g>
<g>
</g>
<g>
</g>
<g>
</g>
<g>
</g>
<g>
</g>
<g>
</g>
<g>
</g>
</svg>
