<?xml version="1.0" encoding="utf-8"?>
<!-- Svg Vector Icons : http://www.onlinewebfonts.com/icon -->
<!DOCTYPE svg PUBLIC "-//W3C//DTD SVG 1.1//EN" "http://www.w3.org/Graphics/SVG/1.1/DTD/svg11.dtd">
<svg version="1.1" xmlns="http://www.w3.org/2000/svg" xmlns:xlink="http://www.w3.org/1999/xlink" x="0px" y="0px" viewBox="0 0 1000 1000" enable-background="new 0 0 1000 1000" xml:space="preserve">
<metadata> Svg Vector Icons : http://www.onlinewebfonts.com/icon </metadata>
<g><path d="M782.8,765.8l52.5-10.4c3.7-0.7,6.6-3.5,7.6-7.1c1-3.6-0.2-7.5-2.9-10L627.6,547.5c-3.1-2.8-7.7-3.3-11.4-1.3c-3.7,2.1-5.7,6.2-4.9,10.4l48.5,278.1c0.6,3.6,3.2,6.6,6.8,7.7c3.4,1.1,7.4,0.2,10-2.4l42-42.1l52.5,92.2c1.4,2.4,3.7,4.1,6.3,4.7c0.8,0.2,1.5,0.3,2.3,0.3c2,0,3.9-0.6,5.5-1.7l53.9-36.3c2.3-1.5,3.8-3.9,4.2-6.6c0.4-2.7-0.2-5.4-1.9-7.6L782.8,765.8z"/><path d="M954.4,105H45.6C25.9,105,10,120.9,10,140.6c0,19.7,15.9,35.6,35.6,35.6H500v381.8H45.6c-19.7,0-35.6,15.9-35.6,35.6c0,19.7,15.9,35.6,35.6,35.6h518.1l-10.9-62.3c-5.1-29.1,8.7-58.2,34.7-72.6c10.2-5.7,21.8-8.6,33.5-8.6c17.2,0,33.6,6.3,46.2,17.7l140,125.8h147.2c19.7,0,35.6-15.9,35.6-35.6v-453C990,120.9,974.1,105,954.4,105z M843.3,321.5c0.1,2.9-0.6,5.7-2.3,8.1l-86.1,106.3c-2.4,3.3-6.3,5.3-10.4,5.3c-4.1,0-8-2-10.4-5.3l-86.1-106.3c-2.9-3.9-3.2-9.1-1.1-13.4c0.6-1.1,1.4-2.2,2.3-3.1c0-0.1,0.1-0.1,0.1-0.2c0.7-0.7,1.4-1.2,2.2-1.7c0.2-0.1,0.4-0.2,0.6-0.4c0.7-0.4,1.4-0.7,2.2-1c0.3-0.1,0.6-0.2,0.9-0.3c1-0.3,2.1-0.4,3.1-0.4h172.2c4.8,0,9.3,2.7,11.5,7c0.4,0.9,0.8,1.8,0.9,2.7C843.2,319.8,843.3,320.6,843.3,321.5L843.3,321.5z"/></g>
</svg>